Plot:

Two Army officers, an alcoholic ex-Confederate soldier and a womanizing Mexican travel to Mexico on a secret mission to prevent a megalomaniacal ex-Confederate colonel from selling a cache of stolen rifles to a band of murderous Apaches.



Language: English
Subtitles: Spanish, French (.sub)


Director: Gordon Douglas


Cast:


Richard Boone 	 ... 	Maj. James 'Jim' Lassiter
Stuart Whitman 	 ... 	Capt. Haven
Anthony Franciosa... 	Juan Luis Rodriguez / Juan Luis Martinez 
Wende Wagner 	 ... 	Sally (Apache girl)
Warner Anderson	 ... 	Col. Wagner
Jim Brown 	 ... 	Sgt. Franklyn
Rodolfo Acosta 	 ... 	Bloodshirt (Apache chief) 




Video

Format                                   : MPEG-4 Visual
Codec ID                                 : XVID
Duration                                 : 1h 42mn
Bit rate                                 : 1 595 Kbps
Width                                    : 688 pixels
Height                                   : 288 pixels
Display aspect ratio                     : 2.40:1
Frame rate                               : 25.000 fps
Scan type                                : Progressive
Stream size                              : 1.14 GiB (89%)


Audio
ID                                       : 1
Format                                   : AC-3
Format/Info                              : Audio Coding 3
Duration                                 : 1h 42mn
Bit rate mode                            : Constant
Bit rate                                 : 192 Kbps
Channel(s)                               : 2 channels
Channel positions                        : Front: L R
Sampling rate                            : 48.0 KHz
Bit depth                                : 16 bits
Stream size                              : 141 MiB (11%)




